<mxfile host="app.diagrams.net" modified="2022-09-02T15:18:47.586Z" agent="5.0 (Windows NT 10.0; Win64; x64) AppleWebKit/537.36 (KHTML, like Gecko) Chrome/103.0.0.0 Safari/537.36" etag="UC-lgmjyFQkl0u1gQgGp" version="20.2.8" type="github">
  <diagram id="1SQF3CQomd5Ly-LOv1nc" name="第 1 页">
    <mxGraphModel dx="497" dy="339" grid="1" gridSize="10" guides="1" tooltips="1" connect="1" arrows="1" fold="1" page="1" pageScale="1" pageWidth="827" pageHeight="1169" math="0" shadow="0">
      <root>
        <mxCell id="0" />
        <mxCell id="1" parent="0" />
        <mxCell id="mFEW5ppE4ZAurcIp8kyR-1" value="" style="group" parent="1" vertex="1" connectable="0">
          <mxGeometry x="190" y="200" width="106" height="50" as="geometry" />
        </mxCell>
        <mxCell id="mFEW5ppE4ZAurcIp8kyR-2" value="" style="rounded=0;whiteSpace=wrap;html=1;fillColor=#f5f5f5;fontColor=#333333;strokeColor=#666666;" parent="mFEW5ppE4ZAurcIp8kyR-1" vertex="1">
          <mxGeometry y="20" width="106" height="30" as="geometry" />
        </mxCell>
        <mxCell id="mFEW5ppE4ZAurcIp8kyR-3" value="node" style="rounded=0;whiteSpace=wrap;html=1;fillColor=#dae8fc;strokeColor=#6c8ebf;" parent="mFEW5ppE4ZAurcIp8kyR-1" vertex="1">
          <mxGeometry width="106" height="20" as="geometry" />
        </mxCell>
        <mxCell id="mFEW5ppE4ZAurcIp8kyR-4" style="edgeStyle=orthogonalEdgeStyle;rounded=0;orthogonalLoop=1;jettySize=auto;html=1;exitX=0.5;exitY=1;exitDx=0;exitDy=0;" parent="mFEW5ppE4ZAurcIp8kyR-1" source="mFEW5ppE4ZAurcIp8kyR-3" target="mFEW5ppE4ZAurcIp8kyR-3" edge="1">
          <mxGeometry relative="1" as="geometry" />
        </mxCell>
        <mxCell id="mFEW5ppE4ZAurcIp8kyR-5" value="" style="endArrow=none;html=1;rounded=0;exitX=0.5;exitY=1;exitDx=0;exitDy=0;entryX=0.5;entryY=0;entryDx=0;entryDy=0;" parent="mFEW5ppE4ZAurcIp8kyR-1" source="mFEW5ppE4ZAurcIp8kyR-2" target="mFEW5ppE4ZAurcIp8kyR-2" edge="1">
          <mxGeometry width="50" height="50" relative="1" as="geometry">
            <mxPoint x="60" y="66.66666666666667" as="sourcePoint" />
            <mxPoint x="53" y="30" as="targetPoint" />
          </mxGeometry>
        </mxCell>
        <mxCell id="mFEW5ppE4ZAurcIp8kyR-6" value="data" style="text;html=1;resizable=0;autosize=1;align=center;verticalAlign=middle;points=[];fillColor=none;strokeColor=none;rounded=0;" parent="mFEW5ppE4ZAurcIp8kyR-1" vertex="1">
          <mxGeometry x="1" y="20" width="50" height="30" as="geometry" />
        </mxCell>
        <mxCell id="mFEW5ppE4ZAurcIp8kyR-7" value="*next" style="text;html=1;resizable=0;autosize=1;align=center;verticalAlign=middle;points=[];fillColor=none;strokeColor=none;rounded=0;" parent="mFEW5ppE4ZAurcIp8kyR-1" vertex="1">
          <mxGeometry x="55" y="20" width="50" height="30" as="geometry" />
        </mxCell>
        <mxCell id="YDEEe9MBwKQSquzbGzcm-1" value="" style="group" vertex="1" connectable="0" parent="1">
          <mxGeometry x="340" y="320" width="106" height="50" as="geometry" />
        </mxCell>
        <mxCell id="YDEEe9MBwKQSquzbGzcm-2" value="" style="rounded=0;whiteSpace=wrap;html=1;fillColor=#f5f5f5;fontColor=#333333;strokeColor=#666666;" vertex="1" parent="YDEEe9MBwKQSquzbGzcm-1">
          <mxGeometry y="20" width="106" height="30" as="geometry" />
        </mxCell>
        <mxCell id="YDEEe9MBwKQSquzbGzcm-3" value="node" style="rounded=0;whiteSpace=wrap;html=1;fillColor=#dae8fc;strokeColor=#6c8ebf;" vertex="1" parent="YDEEe9MBwKQSquzbGzcm-1">
          <mxGeometry width="106" height="20" as="geometry" />
        </mxCell>
        <mxCell id="YDEEe9MBwKQSquzbGzcm-4" style="edgeStyle=orthogonalEdgeStyle;rounded=0;orthogonalLoop=1;jettySize=auto;html=1;exitX=0.5;exitY=1;exitDx=0;exitDy=0;" edge="1" parent="YDEEe9MBwKQSquzbGzcm-1" source="YDEEe9MBwKQSquzbGzcm-3" target="YDEEe9MBwKQSquzbGzcm-3">
          <mxGeometry relative="1" as="geometry" />
        </mxCell>
        <mxCell id="YDEEe9MBwKQSquzbGzcm-5" value="" style="endArrow=none;html=1;rounded=0;exitX=0.5;exitY=1;exitDx=0;exitDy=0;entryX=0.5;entryY=0;entryDx=0;entryDy=0;" edge="1" parent="YDEEe9MBwKQSquzbGzcm-1" source="YDEEe9MBwKQSquzbGzcm-2" target="YDEEe9MBwKQSquzbGzcm-2">
          <mxGeometry width="50" height="50" relative="1" as="geometry">
            <mxPoint x="60" y="66.66666666666667" as="sourcePoint" />
            <mxPoint x="53" y="30" as="targetPoint" />
          </mxGeometry>
        </mxCell>
        <mxCell id="YDEEe9MBwKQSquzbGzcm-6" value="data" style="text;html=1;resizable=0;autosize=1;align=center;verticalAlign=middle;points=[];fillColor=none;strokeColor=none;rounded=0;" vertex="1" parent="YDEEe9MBwKQSquzbGzcm-1">
          <mxGeometry x="1" y="20" width="50" height="30" as="geometry" />
        </mxCell>
        <mxCell id="YDEEe9MBwKQSquzbGzcm-7" value="*next" style="text;html=1;resizable=0;autosize=1;align=center;verticalAlign=middle;points=[];fillColor=none;strokeColor=none;rounded=0;" vertex="1" parent="YDEEe9MBwKQSquzbGzcm-1">
          <mxGeometry x="55" y="20" width="50" height="30" as="geometry" />
        </mxCell>
        <mxCell id="YDEEe9MBwKQSquzbGzcm-8" value="" style="group" vertex="1" connectable="0" parent="1">
          <mxGeometry x="190" y="320" width="106" height="50" as="geometry" />
        </mxCell>
        <mxCell id="YDEEe9MBwKQSquzbGzcm-9" value="" style="rounded=0;whiteSpace=wrap;html=1;fillColor=#f5f5f5;fontColor=#333333;strokeColor=#666666;" vertex="1" parent="YDEEe9MBwKQSquzbGzcm-8">
          <mxGeometry y="20" width="106" height="30" as="geometry" />
        </mxCell>
        <mxCell id="YDEEe9MBwKQSquzbGzcm-10" value="node" style="rounded=0;whiteSpace=wrap;html=1;fillColor=#dae8fc;strokeColor=#6c8ebf;" vertex="1" parent="YDEEe9MBwKQSquzbGzcm-8">
          <mxGeometry width="106" height="20" as="geometry" />
        </mxCell>
        <mxCell id="YDEEe9MBwKQSquzbGzcm-11" style="edgeStyle=orthogonalEdgeStyle;rounded=0;orthogonalLoop=1;jettySize=auto;html=1;exitX=0.5;exitY=1;exitDx=0;exitDy=0;" edge="1" parent="YDEEe9MBwKQSquzbGzcm-8" source="YDEEe9MBwKQSquzbGzcm-10" target="YDEEe9MBwKQSquzbGzcm-10">
          <mxGeometry relative="1" as="geometry" />
        </mxCell>
        <mxCell id="YDEEe9MBwKQSquzbGzcm-12" value="" style="endArrow=none;html=1;rounded=0;exitX=0.5;exitY=1;exitDx=0;exitDy=0;entryX=0.5;entryY=0;entryDx=0;entryDy=0;" edge="1" parent="YDEEe9MBwKQSquzbGzcm-8" source="YDEEe9MBwKQSquzbGzcm-9" target="YDEEe9MBwKQSquzbGzcm-9">
          <mxGeometry width="50" height="50" relative="1" as="geometry">
            <mxPoint x="60" y="66.66666666666667" as="sourcePoint" />
            <mxPoint x="53" y="30" as="targetPoint" />
          </mxGeometry>
        </mxCell>
        <mxCell id="YDEEe9MBwKQSquzbGzcm-13" value="data" style="text;html=1;resizable=0;autosize=1;align=center;verticalAlign=middle;points=[];fillColor=none;strokeColor=none;rounded=0;" vertex="1" parent="YDEEe9MBwKQSquzbGzcm-8">
          <mxGeometry x="1" y="20" width="50" height="30" as="geometry" />
        </mxCell>
        <mxCell id="YDEEe9MBwKQSquzbGzcm-14" value="*next" style="text;html=1;resizable=0;autosize=1;align=center;verticalAlign=middle;points=[];fillColor=none;strokeColor=none;rounded=0;" vertex="1" parent="YDEEe9MBwKQSquzbGzcm-8">
          <mxGeometry x="55" y="20" width="50" height="30" as="geometry" />
        </mxCell>
      </root>
    </mxGraphModel>
  </diagram>
</mxfile>
